# xmcd
#
# Track frame offsets:
#	150
#	14635
#	30668
#	43337
#	56716
#	67751
#	82194
#	93806
#	109091
#	123096
#	133061
#	145601
#	161842
#	178545
#	191862
#	217298
#	239910
#	266284
#	284267
#
# Disc length: 4044 seconds
#
# Revision: 1
# Processed by: cddbd v1.5.2PL0 Copyright (c) Steve Scherf et al.
# Submitted via: MusicManager 7.2.0.0 
#
DISCID=210fca13
DTITLE=Holiday, Billie  - Romance in the Dark - CD 4
DYEAR=2007
DGENRE=Jazz
TTITLE0=I can't Face the Music
TTITLE1=Lover come back to me
TTITLE2=Yesterdays
TTITLE3=How Deep is the Ocean
TTITLE4=I cried for you
TTITLE5=What a little Moonlight can do
TTITLE6=Love me or Leave me
TTITLE7=Stormy Blues
TTITLE8=Willow weep for me
TTITLE9=Too Marvelous for Words
TTITLE10=I Thought abouth you
TTITLE11=P.S. I.love you
TTITLE12=Stormy Weather
TTITLE13=Love for Sale
TTITLE14=I Get a Kick out of you
TTITLE15=Do Nothing till you hear from me
TTITLE16=I got a right to sing the Blues
TTITLE17=It Had to be you
TTITLE18=Please don't talk about me when i'm gone
EXTD=
EXTT0=
EXTT1=
EXTT2=
EXTT3=
EXTT4=
EXTT5=
EXTT6=
EXTT7=
EXTT8=
EXTT9=
EXTT10=
EXTT11=
EXTT12=
EXTT13=
EXTT14=
EXTT15=
EXTT16=
EXTT17=
EXTT18=
PLAYORDER=
